<svg width="390" height="294" viewBox="0 0 390 294" fill="none" xmlns="http://www.w3.org/2000/svg">
<g opacity="0.03">
<path d="M393.357 426.786H393.31L360.65 394.079H360.603L316.463 349.891L285.021 381.239L320.024 416.242L352.731 448.949L398.652 494.87L338.767 554.755L294.346 510.334L261.639 477.627L193.742 409.729L162.3 441.077L239.475 518.206L338.767 617.498L461.442 494.87L393.357 426.786ZM146.977 180.406L114.223 147.652L41.4529 74.8815L-81.2217 197.556L102.696 381.474L134.091 350.079L63.3824 279.37L30.6285 246.616L-18.4319 197.556L41.4529 137.671L92.0126 188.231L124.766 220.985L193.976 290.194L225.324 258.799L146.977 180.406Z" fill="#4BF0A5"/>
<path d="M349.019 71.9254L274.889 146.055L242.182 178.762L193.731 227.213L225.173 258.608L264.393 219.341L349.019 134.715L408.903 194.6L253.616 349.887L285.058 381.282L365.607 300.686L398.313 267.98L471.693 194.6L349.019 71.9254ZM127.474 475.982L94.7669 508.689L51.7043 551.799L-8.18031 491.914L102.499 381.235L71.1036 349.887L27.8068 393.184L-4.90019 425.891L-70.9701 491.914L51.7043 614.589L116.978 549.315L149.685 516.608L193.731 472.515L162.383 441.167L127.474 475.982Z" fill="#4BF0A5"/>
<path d="M398.317 267.981L357.738 245.771L317.346 223.654L297.104 186.636L274.893 146.057L195 0L114.217 147.65L92.0059 188.229L72.6535 223.654L30.6218 246.614L-9.95717 268.825L-151 346L-4.89656 425.893L35.6825 448.057L72.6535 468.3L94.7705 508.691L116.981 549.317L195 692L272.175 550.91L294.339 510.331L317.346 468.3L352.724 448.947L393.303 426.783H393.35L541 346L398.317 267.981ZM360.643 394.076H360.596L320.017 416.24L284.639 435.593L261.632 477.624L239.468 518.203L195 599.455L149.688 516.61L127.477 475.984L105.407 435.593L68.3895 415.35L27.8104 393.186L-58.4553 346L22.7966 301.578L63.3757 279.368L105.407 256.36L124.76 220.983L146.97 180.404L195 92.4978L242.186 178.764L264.397 219.343L284.639 256.36L325.031 278.477L365.61 300.688L448.455 346L360.643 394.076Z" fill="#4BF0A5"/>
<path d="M242.188 178.765L193.737 227.216L146.972 180.405L195.002 92.4989L242.188 178.765Z" fill="#E86B35"/>
</g>
</svg>
