<svg width="20" height="6" viewBox="0 0 20 6" fill="none" xmlns="http://www.w3.org/2000/svg">
<path d="M3 4C3.26522 4 3.51957 3.89464 3.70711 3.70711C3.89464 3.51957 4 3.26522 4 3C4 2.73478 3.89464 2.48043 3.70711 2.29289C3.51957 2.10536 3.26522 2 3 2C2.73478 2 2.48043 2.10536 2.29289 2.29289C2.10536 2.48043 2 2.73478 2 3C2 3.26522 2.10536 3.51957 2.29289 3.70711C2.48043 3.89464 2.73478 4 3 4ZM3 6C2.20435 6 1.44129 5.68393 0.87868 5.12132C0.31607 4.55871 0 3.79565 0 3C0 2.20435 0.31607 1.44129 0.87868 0.87868C1.44129 0.31607 2.20435 0 3 0C3.79565 0 4.55871 0.31607 5.12132 0.87868C5.68393 1.44129 6 2.20435 6 3C6 3.79565 5.68393 4.55871 5.12132 5.12132C4.55871 5.68393 3.79565 6 3 6ZM17 6C16.2044 6 15.4413 5.68393 14.8787 5.12132C14.3161 4.55871 14 3.79565 14 3C14 2.20435 14.3161 1.44129 14.8787 0.87868C15.4413 0.31607 16.2044 0 17 0C17.7956 0 18.5587 0.31607 19.1213 0.87868C19.6839 1.44129 20 2.20435 20 3C20 3.79565 19.6839 4.55871 19.1213 5.12132C18.5587 5.68393 17.7956 6 17 6ZM17 4C17.2652 4 17.5196 3.89464 17.7071 3.70711C17.8946 3.51957 18 3.26522 18 3C18 2.73478 17.8946 2.48043 17.7071 2.29289C17.5196 2.10536 17.2652 2 17 2C16.7348 2 16.4804 2.10536 16.2929 2.29289C16.1054 2.48043 16 2.73478 16 3C16 3.26522 16.1054 3.51957 16.2929 3.70711C16.4804 3.89464 16.7348 4 17 4ZM10 6C9.20435 6 8.44129 5.68393 7.87868 5.12132C7.31607 4.55871 7 3.79565 7 3C7 2.20435 7.31607 1.44129 7.87868 0.87868C8.44129 0.31607 9.20435 0 10 0C10.7956 0 11.5587 0.31607 12.1213 0.87868C12.6839 1.44129 13 2.20435 13 3C13 3.79565 12.6839 4.55871 12.1213 5.12132C11.5587 5.68393 10.7956 6 10 6ZM10 4C10.2652 4 10.5196 3.89464 10.7071 3.70711C10.8946 3.51957 11 3.26522 11 3C11 2.73478 10.8946 2.48043 10.7071 2.29289C10.5196 2.10536 10.2652 2 10 2C9.73478 2 9.48043 2.10536 9.29289 2.29289C9.10536 2.48043 9 2.73478 9 3C9 3.26522 9.10536 3.51957 9.29289 3.70711C9.48043 3.89464 9.73478 4 10 4Z" fill="white"/>
</svg>
