<svg width="222" height="86" viewBox="0 0 222 86" fill="none" xmlns="http://www.w3.org/2000/svg">
<path d="M160.753 24.0479H156.707C156.447 25.8677 155.277 27.4276 153.197 28.7275C151.312 29.9191 149.384 30.5148 147.413 30.5148C146.373 30.5148 145.425 30.3361 144.569 29.9786C143.724 29.632 142.993 29.1445 142.376 28.5163C141.769 27.8988 141.303 27.1568 140.978 26.2902C140.642 25.4236 140.474 24.4704 140.474 23.4305C140.474 21.9139 140.762 20.4245 141.336 18.9621C141.596 18.2797 141.823 17.7922 142.018 17.4997C142.224 17.1964 142.392 17.0448 142.522 17.0448C142.522 17.2506 142.495 17.5593 142.441 17.9709C142.386 18.3826 142.321 18.8159 142.246 19.2708C142.181 19.7149 142.121 20.1428 142.067 20.5545C142.024 20.9553 142.002 21.264 142.002 21.4806C142.002 23.6254 142.652 25.1907 143.952 26.1765C145.392 27.238 146.795 27.7688 148.16 27.7688C148.713 27.7688 149.292 27.6551 149.899 27.4276C150.505 27.2001 151.079 26.9022 151.621 26.5339C152.163 26.1656 152.65 25.7378 153.083 25.2503C153.528 24.7628 153.869 24.2646 154.107 23.7554V3.05473L156.707 0V20.9282H160.753V24.0479Z" fill="#FFF9F1"/>
<path d="M194.078 24.0479H169.592C167.415 24.0479 166.012 23.6579 165.384 22.878C164.885 23.6579 162.383 24.0479 157.877 24.0479V20.9282C161.787 20.9282 164.073 20.7386 164.734 20.3595C164.744 20.262 164.75 20.1482 164.75 20.0183C164.761 19.8774 164.766 19.715 164.766 19.5308C164.766 18.74 164.712 18.2309 164.604 18.0034L166.992 15.3387C167.165 15.9453 167.252 16.579 167.252 17.2397C167.252 18.3122 167.057 19.3791 166.667 20.4407C169.137 20.7765 170.453 20.9444 170.616 20.9444C171.97 20.9444 174.261 19.7258 177.489 17.2885C180.717 14.8187 182.889 13.5838 184.004 13.5838C184.362 13.5838 184.736 13.6759 185.126 13.86C188.354 15.3116 190.217 16.5681 190.715 17.6297C190.856 17.9114 190.959 18.2363 191.024 18.6046C191.1 18.9621 191.138 19.39 191.138 19.8883C191.138 20.3541 191.1 20.7007 191.024 20.9282H194.078V24.0479ZM189.236 19.9208C189.236 19.5525 188.321 18.9296 186.49 18.0522C184.714 17.2073 183.555 16.7848 183.013 16.7848C182.309 16.7848 181.101 17.321 179.39 18.3934C177.7 19.4333 176.676 20.2782 176.319 20.9282H180.527C183.441 20.9607 185.618 20.874 187.059 20.6682C188.511 20.4624 189.236 20.2132 189.236 19.9208Z" fill="#FFF9F1"/>
<path d="M204.77 24.0479H191.186V20.9282H199.505C199.679 20.9282 199.765 20.7819 199.765 20.4895C199.765 20.2728 199.695 19.9641 199.554 19.5633C199.424 19.1517 199.262 18.7454 199.067 18.3447C198.872 17.9439 198.666 17.5918 198.449 17.2885C198.243 16.9852 198.065 16.8335 197.913 16.8335L199.392 13.4051C200.107 14.2175 200.719 15.4037 201.228 16.9635C201.737 18.4476 201.991 19.7691 201.991 20.9282H204.77V24.0479ZM200.074 32.8709L196.662 30.6936L198.092 28.3863L201.52 30.4336L200.074 32.8709ZM191.885 30.9211L193.266 28.5163L196.662 30.6936L195.264 32.9521L191.885 30.9211Z" fill="#FFF9F1"/>
<path d="M214.92 21.0257C214.92 22.683 214.817 23.6309 214.611 23.8692C214.536 23.9883 214.026 24.0479 213.084 24.0479H201.856V20.9282H211.28L208.031 19.5633C206.839 18.87 206.243 17.9601 206.243 16.8335C206.243 15.7395 206.818 14.3746 207.966 12.7389C209.179 11.0274 210.295 10.1716 211.313 10.1716C212.689 10.1716 213.691 11.699 214.319 14.7537C214.536 15.7503 214.687 16.7685 214.774 17.8084C214.871 18.8375 214.92 19.9099 214.92 21.0257ZM213.23 18.4584C213.23 17.7868 212.895 16.8119 212.223 15.5336C211.497 14.1579 210.847 13.4701 210.273 13.4701C210.111 13.4701 209.905 13.5676 209.656 13.7626C209.406 13.9575 209.163 14.185 208.924 14.445C208.697 14.705 208.491 14.9704 208.307 15.2412C208.123 15.5011 208.009 15.7178 207.966 15.8911L213.133 18.7021C213.198 18.6588 213.23 18.5775 213.23 18.4584ZM213.409 4.20838L211.914 6.75941L208.258 4.63085L209.672 2.07982L213.409 4.20838Z" fill="#FFF9F1"/>
<path d="M52.1923 59.7141H52.1879L49.0564 56.5781H49.0519L44.8198 52.3415L41.8051 55.3471L45.1612 58.7032L48.2972 61.8391L52.7 66.242L46.9583 71.9837L42.6992 67.7246L39.5633 64.5887L33.0533 58.0787L30.0387 61.0843L37.4382 68.4794L46.9583 77.9995L58.7203 66.242L52.1923 59.7141ZM28.5696 36.0913L25.4291 32.9508L18.4519 25.9736L6.68994 37.7356L24.3239 55.3696L27.3341 52.3594L20.5545 45.5799L17.4141 42.4395L12.7102 37.7356L18.4519 31.9939L23.2996 36.8415L26.44 39.982L33.0758 46.6177L36.0814 43.6076L28.5696 36.0913Z" fill="#4BF0A5"/>
<path d="M47.9411 25.6902L40.8336 32.7977L37.6977 35.9336L33.0522 40.5791L36.0668 43.5892L39.8272 39.8243L47.9411 31.7104L53.6828 37.4522L38.7939 52.3411L41.8085 55.3512L49.5315 47.6237L52.6674 44.4878L59.7031 37.4522L47.9411 25.6902ZM26.6995 64.431L23.5635 67.5669L19.4347 71.7003L13.693 65.9586L24.3048 55.3467L21.2947 52.3411L17.1434 56.4924L14.0075 59.6283L7.67273 65.9586L19.4347 77.7205L25.6931 71.4622L28.829 68.3262L33.0522 64.0986L30.0465 61.0929L26.6995 64.431Z" fill="#4BF0A5"/>
<path d="M52.6683 44.488L48.7776 42.3585L44.9049 40.2379L42.964 36.6886L40.8344 32.7979L33.1743 18.7941L25.4289 32.9507L23.2993 36.8414L21.4438 40.2379L17.4138 42.4393L13.5231 44.5689L0 51.9684L14.0083 59.6285L17.899 61.7536L21.4438 63.6944L23.5644 67.5672L25.6939 71.4624L33.1743 85.1428L40.5739 71.6151L42.6989 67.7244L44.9049 63.6944L48.2969 61.8389L52.1876 59.7139H52.1921L66.3487 51.9684L52.6683 44.488ZM49.0562 56.578H49.0517L45.161 58.703L41.7689 60.5585L39.563 64.5885L37.4379 68.4792L33.1743 76.2696L28.8299 68.3265L26.7003 64.4312L24.5842 60.5585L21.035 58.6176L17.1443 56.4926L8.87315 51.9684L16.6635 47.7093L20.5543 45.5797L24.5842 43.3738L26.4397 39.9818L28.5693 36.0911L33.1743 27.6627L37.6985 35.9338L39.8281 39.8246L41.7689 43.3738L45.6417 45.4944L49.5324 47.6239L57.4755 51.9684L49.0562 56.578Z" fill="#4BF0A5"/>
<path d="M37.4343 68.4792L33.1752 76.2696L28.8307 68.3219L33.0539 64.0988L37.4343 68.4792Z" fill="#E86B35"/>
<path d="M57.4756 51.9684L49.0517 56.5734L44.8151 52.3413L49.5324 47.6239L57.4756 51.9684Z" fill="#E86B35"/>
<path d="M21.2956 52.3418L17.1398 56.4886L8.87317 51.969L16.6636 47.7098L21.2956 52.3418Z" fill="#E86B35"/>
<path d="M37.7002 35.934L33.0547 40.5795L28.5709 36.0912L33.176 27.6628L37.7002 35.934Z" fill="#E86B35"/>
<path d="M80.642 70.1508V55.2062H97.1151V49.5453H80.642V37.884H100.568V32.2231H74.2452V70.1508H80.642Z" fill="#4BF0A5"/>
<path d="M108.813 70.7169C114.587 70.7169 117.248 66.4146 118.097 62.7917V64.8296C118.097 68.7922 120.418 70.1508 123.361 70.1508H127.267V64.7164H125.513C124.494 64.7164 124.041 64.3201 124.041 63.0747V52.7154C124.041 45.9224 120.191 42.0164 113.342 42.0164C107.228 42.0164 102.926 45.1865 100.775 48.1301L104.567 52.6588C106.153 49.7718 109.04 47.6206 112.719 47.6206C116.512 47.6206 117.757 49.4887 117.984 52.2625L108.756 56.1685C104.284 57.9234 101.567 60.3009 101.567 64.2069C101.567 68.1695 104.284 70.7169 108.813 70.7169ZM107.681 63.2446C107.681 61.8294 108.643 60.867 111.021 59.7915L118.097 56.6214V59.565C118.097 63.3012 115.266 65.792 111.077 65.792C108.756 65.792 107.681 64.8296 107.681 63.2446Z" fill="#4BF0A5"/>
<path d="M136.72 79.6044C141.192 79.6044 144.418 77.6231 146.4 72.0755L156.589 42.5825H149.57L144.645 58.2064L142.664 65.5655L140.682 58.2064L135.701 42.5825H128.738L137.852 68.4525H141.758L141.248 69.981C140.229 73.0378 138.871 74.0002 136.72 74.0002C134.172 74.0002 132.474 72.4151 131.002 70.3206L128.002 75.4154C129.53 77.5665 132.757 79.6044 136.72 79.6044Z" fill="#4BF0A5"/>
<path d="M170.582 70.7169C176.413 70.7169 180.998 67.9997 180.998 62.5653C180.998 58.6027 178.734 56.1119 172.563 54.5269L169.224 53.6777C165.487 52.7154 164.016 51.9795 164.016 49.9982C164.016 48.1301 165.657 47.1112 168.091 47.1112C171.658 47.1112 174.601 48.9226 176.526 51.9795L180.262 48.0169C178.564 44.9034 174.432 42.073 168.544 42.073C162.204 42.073 158.072 45.1865 158.072 50.3378C158.072 55.376 162.091 57.3007 166.45 58.3196L170.129 59.2254C173.186 59.9613 175.281 60.6406 175.281 62.6785C175.281 64.6598 173.526 65.6221 170.809 65.6221C165.884 65.6221 162.487 62.7917 160.959 60.0179L157.223 63.9805C159.317 68.3393 164.695 70.7169 170.582 70.7169Z" fill="#4BF0A5"/>
<path d="M191.957 70.7169C197.731 70.7169 200.391 66.4146 201.241 62.7917V64.8296C201.241 68.7922 203.561 70.1508 206.505 70.1508H210.411V64.7164H208.656C207.637 64.7164 207.184 64.3201 207.184 63.0747V52.7154C207.184 45.9224 203.335 42.0164 196.485 42.0164C190.372 42.0164 186.069 45.1865 183.918 48.1301L187.711 52.6588C189.296 49.7718 192.183 47.6206 195.863 47.6206C199.655 47.6206 200.901 49.4887 201.127 52.2625L191.9 56.1685C187.428 57.9234 184.711 60.3009 184.711 64.2069C184.711 68.1695 187.428 70.7169 191.957 70.7169ZM190.825 63.2446C190.825 61.8294 191.787 60.867 194.164 59.7915L201.241 56.6214V59.565C201.241 63.3012 198.41 65.792 194.221 65.792C191.9 65.792 190.825 64.8296 190.825 63.2446Z" fill="#4BF0A5"/>
<path d="M221.6 70.1508V32.2231H215.26V70.1508H221.6Z" fill="#4BF0A5"/>
</svg>
