<svg width="31" height="31" viewBox="0 0 31 31" fill="none" xmlns="http://www.w3.org/2000/svg">
<path d="M15.5 31C6.93935 31 0 24.0606 0 15.5C0 6.93935 6.93935 0 15.5 0C24.0606 0 31 6.93935 31 15.5C31 24.0606 24.0606 31 15.5 31ZM15.5 27.9C18.7887 27.9 21.9427 26.5936 24.2681 24.2681C26.5936 21.9427 27.9 18.7887 27.9 15.5C27.9 12.2113 26.5936 9.05733 24.2681 6.73188C21.9427 4.40642 18.7887 3.1 15.5 3.1C12.2113 3.1 9.05733 4.40642 6.73188 6.73188C4.40642 9.05733 3.1 12.2113 3.1 15.5C3.1 18.7887 4.40642 21.9427 6.73188 24.2681C9.05733 26.5936 12.2113 27.9 15.5 27.9ZM15.5 23.25C15.0889 23.25 14.6947 23.0867 14.404 22.796C14.1133 22.5053 13.95 22.1111 13.95 21.7C13.95 21.2889 14.1133 20.8947 14.404 20.604C14.6947 20.3133 15.0889 20.15 15.5 20.15C15.9111 20.15 16.3053 20.3133 16.596 20.604C16.8867 20.8947 17.05 21.2889 17.05 21.7C17.05 22.1111 16.8867 22.5053 16.596 22.796C16.3053 23.0867 15.9111 23.25 15.5 23.25ZM17.4778 18.2621C17.1539 18.5153 16.7426 18.6295 16.3345 18.5795C15.9264 18.5295 15.5548 18.3194 15.3016 17.9955C15.0484 17.6716 14.9342 17.2603 14.9842 16.8522C15.0342 16.4441 15.2443 16.0725 15.5682 15.8193L16.1789 15.3419C16.4206 15.1543 16.6229 14.9209 16.7742 14.6549C16.9255 14.389 17.0229 14.0958 17.0606 13.7922C17.0984 13.4886 17.0759 13.1805 16.9944 12.8856C16.9128 12.5907 16.7739 12.3148 16.5855 12.0737C16.3972 11.8326 16.1631 11.6311 15.8966 11.4806C15.6302 11.3302 15.3367 11.2338 15.033 11.197C14.7293 11.1602 14.4212 11.1838 14.1266 11.2662C13.832 11.3487 13.5565 11.4885 13.316 11.6777L12.7053 12.1551C12.5457 12.2873 12.3611 12.3861 12.1625 12.4457C11.964 12.5053 11.7555 12.5245 11.5494 12.5021C11.3433 12.4797 11.1438 12.4162 10.9627 12.3153C10.7816 12.2144 10.6225 12.0783 10.495 11.9148C10.3674 11.7514 10.274 11.5641 10.2201 11.3639C10.1662 11.1637 10.1531 10.9547 10.1814 10.7493C10.2098 10.544 10.279 10.3464 10.3851 10.1683C10.4911 9.99013 10.6318 9.83508 10.7989 9.7123L11.408 9.2349C12.5418 8.34901 13.981 7.94979 15.4091 8.12508C16.8373 8.30036 18.1373 9.03578 19.0231 10.1695C19.909 11.3033 20.3083 12.7426 20.133 14.1707C19.9577 15.5988 19.2223 16.8988 18.0885 17.7847L17.4778 18.2621Z" fill="#0A221C"/>
</svg>
