<svg width="20" height="21" viewBox="0 0 20 21" fill="none" xmlns="http://www.w3.org/2000/svg">
<path d="M10 20.5C4.477 20.5 0 16.023 0 10.5C0 4.977 4.477 0.5 10 0.5C15.523 0.5 20 4.977 20 10.5C20 16.023 15.523 20.5 10 20.5ZM10 18.5C12.1217 18.5 14.1566 17.6571 15.6569 16.1569C17.1571 14.6566 18 12.6217 18 10.5C18 8.37827 17.1571 6.34344 15.6569 4.84315C14.1566 3.34285 12.1217 2.5 10 2.5C7.87827 2.5 5.84344 3.34285 4.34315 4.84315C2.84285 6.34344 2 8.37827 2 10.5C2 12.6217 2.84285 14.6566 4.34315 16.1569C5.84344 17.6571 7.87827 18.5 10 18.5ZM10 4.5C11.0609 4.5 12.0783 4.92143 12.8284 5.67157C13.5786 6.42172 14 7.43913 14 8.5V10.5C14 11.5609 13.5786 12.5783 12.8284 13.3284C12.0783 14.0786 11.0609 14.5 10 14.5C8.93913 14.5 7.92172 14.0786 7.17157 13.3284C6.42143 12.5783 6 11.5609 6 10.5V8.5C6 7.43913 6.42143 6.42172 7.17157 5.67157C7.92172 4.92143 8.93913 4.5 10 4.5ZM10 6.5C9.46957 6.5 8.96086 6.71071 8.58579 7.08579C8.21071 7.46086 8 7.96957 8 8.5V10.5C8 11.0304 8.21071 11.5391 8.58579 11.9142C8.96086 12.2893 9.46957 12.5 10 12.5C10.5304 12.5 11.0391 12.2893 11.4142 11.9142C11.7893 11.5391 12 11.0304 12 10.5V8.5C12 7.96957 11.7893 7.46086 11.4142 7.08579C11.0391 6.71071 10.5304 6.5 10 6.5ZM5.91 17.376C5.33398 17.0329 4.80319 16.619 4.33 16.144C4.92398 15.446 5.68102 14.9053 6.534 14.57C6.65695 14.5175 6.78916 14.4903 6.92283 14.4898C7.0565 14.4893 7.18891 14.5156 7.31223 14.5672C7.43555 14.6188 7.54728 14.6945 7.64082 14.79C7.73436 14.8855 7.8078 14.9988 7.85681 15.1231C7.90582 15.2475 7.9294 15.3804 7.92615 15.514C7.92291 15.6477 7.8929 15.7793 7.83792 15.9011C7.78293 16.023 7.70408 16.1325 7.60602 16.2234C7.50796 16.3142 7.39268 16.3845 7.267 16.43C6.735 16.64 6.274 16.968 5.909 17.376H5.91ZM14.054 17.398C13.6668 16.9697 13.1836 16.6394 12.644 16.434C12.5175 16.3901 12.4012 16.3213 12.3018 16.2316C12.2024 16.1419 12.1221 16.0332 12.0655 15.9119C12.009 15.7905 11.9773 15.6591 11.9725 15.5253C11.9677 15.3916 11.9897 15.2582 12.0374 15.1331C12.0851 15.008 12.1574 14.8938 12.25 14.7972C12.3427 14.7006 12.4538 14.6235 12.5767 14.5706C12.6997 14.5177 12.832 14.4901 12.9659 14.4893C13.0998 14.4885 13.2324 14.5146 13.356 14.566C14.2398 14.9021 15.0251 15.4547 15.64 16.173C15.1645 16.6459 14.6317 17.0575 14.054 17.398Z" fill="white"/>
</svg>
