<svg width="26" height="25" viewBox="0 0 26 25" fill="none" xmlns="http://www.w3.org/2000/svg">
<path d="M20.5927 15.4184H20.591L19.4111 14.2368H19.4094L17.8147 12.6404L16.6788 13.7729L17.9434 15.0375L19.125 16.2191L20.784 17.8781L18.6205 20.0415L17.0157 18.4367L15.8341 17.2551L13.3812 14.8022L12.2452 15.9347L15.0334 18.7211L18.6205 22.3083L23.0524 17.8781L20.5927 15.4184ZM11.6917 6.51737L10.5084 5.33407L7.87939 2.70508L3.44751 7.13696L10.0919 13.7814L11.2262 12.6472L8.67165 10.0927L7.48834 8.90937L5.71593 7.13696L7.87939 4.9735L9.70597 6.80008L10.8893 7.98338L13.3896 10.4837L14.5221 9.34951L11.6917 6.51737Z" fill="#0A221C"/>
<path d="M18.9909 2.59863L16.3128 5.27672L15.1312 6.45833L13.3808 8.20873L14.5167 9.34294L15.9336 7.92434L18.9909 4.86705L21.1543 7.03051L15.5442 12.6406L16.6801 13.7748L19.5901 10.8631L20.7718 9.68151L23.4228 7.03051L18.9909 2.59863ZM10.9871 17.1961L9.80548 18.3777L8.24975 19.9351L6.08629 17.7716L10.0848 13.7731L8.95059 12.6406L7.3864 14.2048L6.20479 15.3864L3.81787 17.7716L8.24975 22.2035L10.6079 19.8454L11.7895 18.6638L13.3808 17.0708L12.2483 15.9383L10.9871 17.1961Z" fill="#0A221C"/>
<path d="M20.772 9.68141L19.306 8.879L17.8468 8.07997L17.1155 6.74262L16.3131 5.27661L13.4268 0L10.5083 5.33417L9.70587 6.80017L9.00673 8.07997L7.48824 8.90947L6.02224 9.71188L0.926758 12.5L6.20506 15.3863L7.67107 16.187L9.00673 16.9183L9.80575 18.3776L10.6082 19.8453L13.4268 25L16.2149 19.9028L17.0156 18.4368L17.8468 16.9183L19.1249 16.2192L20.5909 15.4185H20.5926L25.9268 12.5L20.772 9.68141ZM19.411 14.2369H19.4093L17.9433 15.0376L16.6652 15.7367L15.834 17.2552L15.0333 18.7212L13.4268 21.6566L11.7898 18.6637L10.9874 17.196L10.19 15.7367L8.85268 15.0054L7.38667 14.2047L4.27014 12.5L7.20554 10.8952L8.67154 10.0928L10.19 9.26158L10.8892 7.98348L11.6916 6.51747L13.4268 3.34168L15.1315 6.45822L15.9339 7.92423L16.6652 9.26158L18.1244 10.0606L19.5904 10.863L22.5834 12.5L19.411 14.2369Z" fill="#0A221C"/>
<path d="M15.0319 18.7208L13.4271 21.6562L11.7901 18.6616L13.3814 17.0703L15.0319 18.7208Z" fill="#0A221C"/>
<path d="M22.5833 12.5003L19.4093 14.2354L17.8129 12.6408L19.5904 10.8633L22.5833 12.5003Z" fill="#0A221C"/>
<path d="M8.95084 12.6408L7.38495 14.2033L4.27011 12.5003L7.20551 10.8955L8.95084 12.6408Z" fill="#0A221C"/>
<path d="M15.1321 6.45833L13.3817 8.20874L11.6923 6.51758L13.4274 3.3418L15.1321 6.45833Z" fill="#0A221C"/>
</svg>
