<svg width="27" height="27" viewBox="0 0 27 27" fill="none" xmlns="http://www.w3.org/2000/svg">
<path d="M4.5 4.5V9H9V4.5H4.5ZM4.5 2.25H9C9.59674 2.25 10.169 2.48705 10.591 2.90901C11.0129 3.33097 11.25 3.90326 11.25 4.5V9C11.25 9.59674 11.0129 10.169 10.591 10.591C10.169 11.0129 9.59674 11.25 9 11.25H4.5C3.90326 11.25 3.33097 11.0129 2.90901 10.591C2.48705 10.169 2.25 9.59674 2.25 9V4.5C2.25 3.90326 2.48705 3.33097 2.90901 2.90901C3.33097 2.48705 3.90326 2.25 4.5 2.25V2.25ZM18 2.25H22.5C23.0967 2.25 23.669 2.48705 24.091 2.90901C24.5129 3.33097 24.75 3.90326 24.75 4.5V9C24.75 9.59674 24.5129 10.169 24.091 10.591C23.669 11.0129 23.0967 11.25 22.5 11.25H18C17.4033 11.25 16.831 11.0129 16.409 10.591C15.9871 10.169 15.75 9.59674 15.75 9V4.5C15.75 3.90326 15.9871 3.33097 16.409 2.90901C16.831 2.48705 17.4033 2.25 18 2.25V2.25ZM18 4.5V9H22.5V4.5H18ZM18 15.75H22.5C23.0967 15.75 23.669 15.9871 24.091 16.409C24.5129 16.831 24.75 17.4033 24.75 18V22.5C24.75 23.0967 24.5129 23.669 24.091 24.091C23.669 24.5129 23.0967 24.75 22.5 24.75H18C17.4033 24.75 16.831 24.5129 16.409 24.091C15.9871 23.669 15.75 23.0967 15.75 22.5V18C15.75 17.4033 15.9871 16.831 16.409 16.409C16.831 15.9871 17.4033 15.75 18 15.75ZM18 18V22.5H22.5V18H18ZM4.5 15.75H9C9.59674 15.75 10.169 15.9871 10.591 16.409C11.0129 16.831 11.25 17.4033 11.25 18V22.5C11.25 23.0967 11.0129 23.669 10.591 24.091C10.169 24.5129 9.59674 24.75 9 24.75H4.5C3.90326 24.75 3.33097 24.5129 2.90901 24.091C2.48705 23.669 2.25 23.0967 2.25 22.5V18C2.25 17.4033 2.48705 16.831 2.90901 16.409C3.33097 15.9871 3.90326 15.75 4.5 15.75ZM4.5 18V22.5H9V18H4.5Z" fill="white"/>
</svg>
