<svg width="18" height="18" viewBox="0 0 18 18" fill="none" xmlns="http://www.w3.org/2000/svg">
<path d="M7.01 13.4473L10.1317 10.3248L10.9875 10.4773C11.8607 10.6339 12.7611 10.5077 13.5577 10.117C14.3542 9.7264 15.0052 9.09171 15.416 8.30539C15.8268 7.51906 15.9759 6.62215 15.8416 5.74522C15.7072 4.86829 15.2965 4.05712 14.6692 3.42981C14.0419 2.80249 13.2307 2.39178 12.3538 2.25745C11.4769 2.12313 10.5799 2.27221 9.79362 2.683C9.00729 3.09378 8.37261 3.74482 7.98196 4.54134C7.59131 5.33786 7.46509 6.23827 7.62167 7.1115L7.775 7.96817L1.94667 13.7965L2.09417 16.0057L4.30334 16.1532L5.83084 14.6257L5.24167 14.0365C5.08541 13.8801 4.99767 13.6681 4.99775 13.447C4.99783 13.226 5.08572 13.014 5.24209 12.8578C5.39845 12.7015 5.61049 12.6138 5.83155 12.6138C6.05261 12.6139 6.26458 12.7018 6.42084 12.8582L7.01 13.4473ZM7.59917 2.2515C8.30846 1.54222 9.18866 1.02782 10.1548 0.757989C11.1209 0.488157 12.1402 0.472011 13.1144 0.711109C14.0886 0.950208 14.9846 1.43647 15.716 2.12294C16.4474 2.8094 16.9894 3.67287 17.2897 4.62994C17.59 5.58702 17.6385 6.60536 17.4303 7.58661C17.2222 8.56786 16.7646 9.47887 16.1016 10.2316C15.4387 10.9844 14.5928 11.5535 13.6457 11.884C12.6987 12.2144 11.6824 12.2951 10.695 12.1182L4.9475 17.8665L1.25584 17.6207C1.05423 17.6074 0.864312 17.5213 0.721441 17.3784C0.578569 17.2355 0.492472 17.0456 0.479171 16.844L0.233337 13.1523L5.98167 7.404C5.81536 6.47845 5.87553 5.5264 6.15705 4.62916C6.43858 3.73191 6.93308 2.91614 7.59834 2.2515H7.59917ZM11.1342 6.96484C10.8217 6.65221 10.6461 6.22825 10.6462 5.78621C10.6463 5.34417 10.822 4.92027 11.1346 4.60775C11.4472 4.29524 11.8712 4.11972 12.3132 4.11979C12.7553 4.11987 13.1792 4.29555 13.4917 4.60817C13.8042 4.92079 13.9797 5.34476 13.9796 5.7868C13.9796 6.22884 13.8039 6.65274 13.4913 6.96525C13.1786 7.27777 12.7547 7.45329 12.3126 7.45321C11.8706 7.45313 11.4467 7.27746 11.1342 6.96484Z" fill="white"/>
</svg>
