<svg width="15" height="18" viewBox="0 0 15 18" fill="none" xmlns="http://www.w3.org/2000/svg">
<path d="M4.41395 7.828H10.056C10.1873 7.828 10.3173 7.85387 10.4386 7.90412C10.56 7.95438 10.6702 8.02804 10.7631 8.12089C10.8559 8.21375 10.9296 8.32399 10.9798 8.44532C11.0301 8.56664 11.056 8.69668 11.056 8.828C11.056 8.95932 11.0301 9.08936 10.9798 9.21068C10.9296 9.33201 10.8559 9.44225 10.7631 9.53511C10.6702 9.62796 10.56 9.70162 10.4386 9.75188C10.3173 9.80213 10.1873 9.828 10.056 9.828H4.41395L5.53595 10.95C5.72346 11.1376 5.82875 11.3921 5.82865 11.6574C5.82856 11.9226 5.72309 12.177 5.53545 12.3645C5.34781 12.552 5.09337 12.6573 4.8281 12.6572C4.56283 12.6571 4.30846 12.5516 4.12095 12.364L1.29295 9.536C1.19962 9.44333 1.12554 9.33311 1.07499 9.21168C1.02444 9.09025 0.998413 8.96003 0.998413 8.8285C0.998413 8.69697 1.02444 8.56674 1.07499 8.44532C1.12554 8.32389 1.19962 8.21367 1.29295 8.121L4.11995 5.293C4.30746 5.10536 4.56183 4.99989 4.8271 4.9998C5.09237 4.9997 5.34681 5.10499 5.53445 5.2925C5.72209 5.48001 5.82756 5.73438 5.82765 5.99965C5.82775 6.26492 5.72246 6.51936 5.53495 6.707L4.41395 7.828ZM14 0C14.2652 0 14.5195 0.105357 14.7071 0.292893C14.8946 0.48043 15 0.734784 15 1V17C15 17.2652 14.8946 17.5196 14.7071 17.7071C14.5195 17.8946 14.2652 18 14 18C13.7347 18 13.4804 17.8946 13.2928 17.7071C13.1053 17.5196 13 17.2652 13 17V1C13 0.734784 13.1053 0.48043 13.2928 0.292893C13.4804 0.105357 13.7347 0 14 0V0Z" fill="#4BF0A5"/>
</svg>
