<svg width="14" height="24" viewBox="0 0 14 24" fill="none" xmlns="http://www.w3.org/2000/svg">
<path d="M3.5 0H10.5C11.4283 0 12.3185 0.368749 12.9749 1.02513C13.6313 1.6815 14 2.57174 14 3.5V19.8333C14 20.7616 13.6313 21.6518 12.9749 22.3082C12.3185 22.9646 11.4283 23.3333 10.5 23.3333H3.5C2.57174 23.3333 1.6815 22.9646 1.02513 22.3082C0.368749 21.6518 0 20.7616 0 19.8333L0 3.5C0 2.57174 0.368749 1.6815 1.02513 1.02513C1.6815 0.368749 2.57174 0 3.5 0V0ZM3.5 2.33333C3.19058 2.33333 2.89383 2.45625 2.67504 2.67504C2.45625 2.89383 2.33333 3.19058 2.33333 3.5V19.8333C2.33333 20.1428 2.45625 20.4395 2.67504 20.6583C2.89383 20.8771 3.19058 21 3.5 21H10.5C10.8094 21 11.1062 20.8771 11.325 20.6583C11.5437 20.4395 11.6667 20.1428 11.6667 19.8333V3.5C11.6667 3.19058 11.5437 2.89383 11.325 2.67504C11.1062 2.45625 10.8094 2.33333 10.5 2.33333H3.5ZM7 19.8333C6.69058 19.8333 6.39383 19.7104 6.17504 19.4916C5.95625 19.2728 5.83333 18.9761 5.83333 18.6667C5.83333 18.3572 5.95625 18.0605 6.17504 17.8417C6.39383 17.6229 6.69058 17.5 7 17.5C7.30942 17.5 7.60616 17.6229 7.82496 17.8417C8.04375 18.0605 8.16667 18.3572 8.16667 18.6667C8.16667 18.9761 8.04375 19.2728 7.82496 19.4916C7.60616 19.7104 7.30942 19.8333 7 19.8333Z" fill="white"/>
</svg>
