<svg width="19" height="23" viewBox="0 0 19 23" fill="none" xmlns="http://www.w3.org/2000/svg">
<path fill-rule="evenodd" clip-rule="evenodd" d="M14.4138 3.10928L14.0628 5.37726L13.8918 5.26027C13.3917 5.03298 12.874 4.84637 12.3438 4.70227C11.415 4.46344 10.4588 4.34844 9.49984 4.36027C8.53953 4.36338 7.58364 4.49043 6.65586 4.73827C6.13237 4.88497 5.62088 5.07151 5.12587 5.29627L4.93687 5.38626L4.58587 3.10928C4.5137 2.63871 4.56724 2.15743 4.74105 1.71423C4.91486 1.27102 5.20277 0.881656 5.57558 0.585599C5.94839 0.289541 6.39286 0.0973205 6.86391 0.0284244C7.33497 -0.0404717 7.81586 0.0164061 8.25785 0.193292L9.15784 0.55329C9.37168 0.638451 9.61001 0.638451 9.82384 0.55329L10.7238 0.193292C11.1658 0.0164061 11.6467 -0.0404717 12.1178 0.0284244C12.5888 0.0973205 13.0333 0.289541 13.4061 0.585599C13.7789 0.881656 14.0668 1.27102 14.2406 1.71423C14.4144 2.15743 14.468 2.63871 14.3958 3.10928H14.4138ZM15.8629 8.80608C15.2494 8.18476 14.5455 7.65983 13.7749 7.24909C13.5734 7.13635 13.3661 7.03421 13.1539 6.94309C12.7261 6.74962 12.2838 6.59013 11.8309 6.46609L11.3989 6.36709C11.0839 6.30409 10.7779 6.25909 10.4989 6.22309H10.0759H9.85995C9.62929 6.20528 9.39761 6.20528 9.16695 6.22309H8.96896H8.63596H8.50996C8.20741 6.24907 7.90681 6.29416 7.60996 6.35809L7.18696 6.45709C6.73809 6.58066 6.2989 6.73709 5.87297 6.92509L5.87294 6.92511C5.65695 7.0241 5.44096 7.12309 5.24298 7.23109C3.80956 8.00062 2.61155 9.1443 1.77638 10.5405C0.941201 11.9367 0.500102 13.5331 0.5 15.16V17.86C0.5 19.0535 0.974103 20.1981 1.81801 21.042C2.66192 21.8859 3.80651 22.36 4.99998 22.36H13.9999C15.1934 22.36 16.338 21.8859 17.1819 21.042C18.0258 20.1981 18.4999 19.0535 18.4999 17.86V15.16C18.5054 13.9787 18.275 12.8082 17.8222 11.7171C17.3694 10.626 16.7033 9.63634 15.8629 8.80608Z" fill="#0A221C"/>
<path d="M6.23551 18V15.5784H5.5V14.8529H6.23551V14.1471H5.5V13.4216H6.23551V11H8.22645L9.21558 13.4216H10.3696V11H11.7772V13.4216H12.5V14.1471H11.7772V14.8529H12.5V15.5784H11.7772V18H9.77355L8.75906 15.5784H7.64312V18H6.23551ZM7.64312 14.8529H8.48007L8.20109 14.1471H7.61775L7.64312 14.8529ZM10.4076 16.4706H10.471L10.4203 15.5784H10.0779L10.4076 16.4706ZM7.59239 13.4216H7.94746L7.57971 12.4804H7.52899L7.59239 13.4216ZM9.81159 14.8529H10.3949L10.3696 14.1471H9.51993L9.81159 14.8529Z" fill="#4BF0A5"/>
</svg>
