<svg width="26" height="26" viewBox="0 0 26 26" fill="none" xmlns="http://www.w3.org/2000/svg">
<path d="M5.99513 13.6175C6.12832 13.5607 6.27155 13.5311 6.41636 13.5306C6.56116 13.5301 6.70461 13.5586 6.83821 13.6145C6.9718 13.6703 7.09285 13.7524 7.19418 13.8558C7.29551 13.9593 7.37508 14.082 7.42817 14.2167C7.48126 14.3515 7.5068 14.4955 7.50329 14.6402C7.49978 14.785 7.46727 14.9276 7.4077 15.0596C7.34814 15.1916 7.26271 15.3103 7.15648 15.4087C7.05025 15.5071 6.92536 15.5832 6.78921 15.6325C6.06505 15.9178 5.44352 16.4145 5.00551 17.0579C4.56749 17.7013 4.33326 18.4617 4.33329 19.24V21.125C4.33329 21.4123 4.44743 21.6879 4.65059 21.891C4.85376 22.0942 5.12931 22.2083 5.41663 22.2083H14.0833C14.3706 22.2083 14.6462 22.0942 14.8493 21.891C15.0525 21.6879 15.1666 21.4123 15.1666 21.125V19.3408C15.1667 18.5374 14.9227 17.753 14.4669 17.0916C14.0111 16.4301 13.365 15.9228 12.6143 15.6368C12.4773 15.5893 12.3512 15.5147 12.2436 15.4176C12.1359 15.3204 12.0489 15.2026 11.9876 15.0712C11.9263 14.9398 11.8921 14.7974 11.8868 14.6524C11.8816 14.5075 11.9055 14.363 11.9572 14.2275C12.0088 14.092 12.0871 13.9683 12.1875 13.8636C12.2879 13.7589 12.4082 13.6755 12.5414 13.6182C12.6747 13.5609 12.818 13.5309 12.963 13.5301C13.108 13.5292 13.2517 13.5575 13.3856 13.6132C14.5465 14.0554 15.5457 14.8399 16.2507 15.8627C16.9556 16.8856 17.3332 18.0985 17.3333 19.3408V21.125C17.3333 21.987 16.9909 22.8136 16.3814 23.4231C15.7719 24.0326 14.9452 24.375 14.0833 24.375H5.41663C4.55467 24.375 3.72802 24.0326 3.11853 23.4231C2.50904 22.8136 2.16663 21.987 2.16663 21.125L2.16663 19.24C2.16678 18.0268 2.53201 16.8418 3.21482 15.839C3.89763 14.8363 4.8664 14.0622 5.99513 13.6175ZM9.74996 2.70833C10.8992 2.70833 12.0014 3.16488 12.8141 3.97754C13.6267 4.79019 14.0833 5.8924 14.0833 7.04167V9.20833C14.0833 10.3576 13.6267 11.4598 12.8141 12.2725C12.0014 13.0851 10.8992 13.5417 9.74996 13.5417C8.60069 13.5417 7.49849 13.0851 6.68583 12.2725C5.87317 11.4598 5.41663 10.3576 5.41663 9.20833V7.04167C5.41663 5.8924 5.87317 4.79019 6.68583 3.97754C7.49849 3.16488 8.60069 2.70833 9.74996 2.70833ZM9.74996 4.875C9.17532 4.875 8.62422 5.10327 8.21789 5.5096C7.81157 5.91593 7.58329 6.46703 7.58329 7.04167V9.20833C7.58329 9.78297 7.81157 10.3341 8.21789 10.7404C8.62422 11.1467 9.17532 11.375 9.74996 11.375C10.3246 11.375 10.8757 11.1467 11.282 10.7404C11.6884 10.3341 11.9166 9.78297 11.9166 9.20833V7.04167C11.9166 6.46703 11.6884 5.91593 11.282 5.5096C10.8757 5.10327 10.3246 4.875 9.74996 4.875ZM19.5 23.2917C19.2126 23.2917 18.9371 23.1775 18.7339 22.9744C18.5308 22.7712 18.4166 22.4957 18.4166 22.2083C18.4166 21.921 18.5308 21.6455 18.7339 21.4423C18.9371 21.2391 19.2126 21.125 19.5 21.125H20.5833C20.8706 21.125 21.1462 21.0109 21.3493 20.8077C21.5525 20.6045 21.6666 20.329 21.6666 20.0417V18.0505C21.6666 17.2804 21.4242 16.5299 20.9739 15.9052C20.5236 15.2805 19.8882 14.8133 19.1576 14.5698C19.0226 14.5248 18.8978 14.4537 18.7903 14.3605C18.6827 14.2673 18.5946 14.1538 18.5309 14.0266C18.4673 13.8993 18.4293 13.7608 18.4191 13.6188C18.409 13.4769 18.4269 13.3343 18.4719 13.1993C18.5168 13.0643 18.5879 12.9395 18.6811 12.832C18.7743 12.7244 18.8878 12.6363 19.0151 12.5726C19.1423 12.509 19.2809 12.471 19.4228 12.4608C19.5647 12.4507 19.7073 12.4686 19.8423 12.5136C21.0045 12.9008 22.0153 13.644 22.7316 14.6378C23.4479 15.6315 23.8334 16.8255 23.8333 18.0505V20.0417C23.8333 20.9036 23.4909 21.7303 22.8814 22.3398C22.2719 22.9493 21.4452 23.2917 20.5833 23.2917H19.5ZM16.25 3.79167C15.9626 3.79167 15.6871 3.67753 15.4839 3.47437C15.2808 3.2712 15.1666 2.99565 15.1666 2.70833C15.1666 2.42102 15.2808 2.14547 15.4839 1.9423C15.6871 1.73914 15.9626 1.625 16.25 1.625C17.3992 1.625 18.5014 2.08155 19.3141 2.8942C20.1267 3.70686 20.5833 4.80906 20.5833 5.95833V8.125C20.5833 9.27427 20.1267 10.3765 19.3141 11.1891C18.5014 12.0018 17.3992 12.4583 16.25 12.4583C15.9626 12.4583 15.6871 12.3442 15.4839 12.141C15.2808 11.9379 15.1666 11.6623 15.1666 11.375C15.1666 11.0877 15.2808 10.8121 15.4839 10.609C15.6871 10.4058 15.9626 10.2917 16.25 10.2917C16.8246 10.2917 17.3757 10.0634 17.782 9.65707C18.1884 9.25074 18.4166 8.69964 18.4166 8.125V5.95833C18.4166 5.3837 18.1884 4.8326 17.782 4.42627C17.3757 4.01994 16.8246 3.79167 16.25 3.79167Z" fill="white"/>
</svg>
