<svg width="279" height="446" viewBox="0 0 279 446" fill="none" xmlns="http://www.w3.org/2000/svg">
<path d="M144.859 144.999L223.535 2L300.141 144.999L443 223.751L300.141 302.504L222.5 444.467L144.859 302.504L2 223.751L144.859 144.999Z" stroke="url(#paint0_linear_1608_6939)" stroke-opacity="0.17"/>
<path d="M157.77 157.966L223.363 38.6689L287.229 157.966L406.331 223.666L287.229 289.366L222.5 407.799L157.77 289.366L38.6682 223.666L157.77 157.966Z" stroke="url(#paint1_linear_1608_6939)" stroke-opacity="0.17"/>
<path d="M171.715 171.97L223.177 78.2705L273.285 171.97L366.73 223.573L273.285 275.176L222.5 368.196L171.715 275.176L78.2706 223.573L171.715 171.97Z" stroke="url(#paint2_linear_1608_6939)" stroke-opacity="0.17"/>
<path d="M183.593 183.9L223.019 112.006L261.406 183.9L332.994 223.494L261.406 263.088L222.5 334.462L183.593 263.088L112.005 223.494L183.593 183.9Z" stroke="url(#paint3_linear_1608_6939)" stroke-opacity="0.17"/>
<path d="M194.439 194.793L222.874 142.808L250.561 194.793L302.193 223.422L250.561 252.052L222.5 303.66L194.439 252.052L142.807 223.422L194.439 194.793Z" stroke="url(#paint4_linear_1608_6939)" stroke-opacity="0.17"/>
<path d="M203.219 203.61L222.757 167.742L241.781 203.61L277.258 223.364L241.781 243.117L222.5 278.726L203.219 243.117L167.741 223.364L203.219 203.61Z" stroke="url(#paint5_linear_1608_6939)" stroke-opacity="0.17"/>
<defs>
<linearGradient id="paint0_linear_1608_6939" x1="222.5" y1="2" x2="222.5" y2="444.467" gradientUnits="userSpaceOnUse">
<stop stop-color="#113A2F"/>
<stop offset="1" stop-color="#4BF0A5"/>
</linearGradient>
<linearGradient id="paint1_linear_1608_6939" x1="222.5" y1="38.6689" x2="222.5" y2="407.799" gradientUnits="userSpaceOnUse">
<stop stop-color="#113A2F"/>
<stop offset="1" stop-color="#4BF0A5"/>
</linearGradient>
<linearGradient id="paint2_linear_1608_6939" x1="222.5" y1="78.2705" x2="222.5" y2="368.196" gradientUnits="userSpaceOnUse">
<stop stop-color="#113A2F"/>
<stop offset="1" stop-color="#4BF0A5"/>
</linearGradient>
<linearGradient id="paint3_linear_1608_6939" x1="222.5" y1="112.006" x2="222.5" y2="334.462" gradientUnits="userSpaceOnUse">
<stop stop-color="#113A2F"/>
<stop offset="1" stop-color="#4BF0A5"/>
</linearGradient>
<linearGradient id="paint4_linear_1608_6939" x1="222.5" y1="142.808" x2="222.5" y2="303.66" gradientUnits="userSpaceOnUse">
<stop stop-color="#113A2F"/>
<stop offset="1" stop-color="#4BF0A5"/>
</linearGradient>
<linearGradient id="paint5_linear_1608_6939" x1="222.5" y1="167.742" x2="222.5" y2="278.726" gradientUnits="userSpaceOnUse">
<stop stop-color="#113A2F"/>
<stop offset="1" stop-color="#4BF0A5"/>
</linearGradient>
</defs>
</svg>
