<svg width="19" height="24" viewBox="0 0 19 24" fill="none" xmlns="http://www.w3.org/2000/svg">
<path d="M2.33333 5.117V9.33333C2.3335 10.833 2.65419 12.3153 3.27392 13.6809C3.89365 15.0465 4.7981 16.2639 5.92667 17.2515L9.33333 20.2323L12.74 17.2515C13.8686 16.264 14.7731 15.0466 15.3929 13.681C16.0126 12.3153 16.3332 10.833 16.3333 9.33333V5.117L9.33333 2.492L2.33333 5.117ZM0.757167 3.21533L9.33333 0L17.9095 3.2165C18.1318 3.29984 18.3234 3.44904 18.4587 3.64417C18.594 3.83929 18.6666 4.07106 18.6667 4.3085V9.33333C18.6667 13.0398 17.066 16.5667 14.2765 19.0085L9.33333 23.3333L4.39017 19.0085C3.01112 17.8019 1.90597 16.3143 1.14881 14.6457C0.391638 12.977 -5.03676e-05 11.1658 4.85793e-09 9.33333V4.3085C8.91612e-05 4.07106 0.0726261 3.83929 0.207922 3.64417C0.343218 3.44904 0.534831 3.29984 0.757167 3.2165V3.21533Z" fill="white"/>
</svg>
