<svg width="67" height="68" viewBox="0 0 67 68" fill="none" xmlns="http://www.w3.org/2000/svg">
<path d="M52.1923 41.7141H52.1879L49.0564 38.5781H49.0519L44.8198 34.3415L41.8051 37.3471L45.1612 40.7032L48.2971 43.8391L52.7 48.242L46.9583 53.9837L42.6992 49.7246L39.5633 46.5887L33.0533 40.0787L30.0387 43.0843L37.4382 50.4794L46.9583 59.9995L58.7203 48.242L52.1923 41.7141ZM28.5696 18.0913L25.4291 14.9508L18.4519 7.97363L6.68994 19.7356L24.3239 37.3696L27.3341 34.3594L20.5545 27.5799L17.4141 24.4395L12.7102 19.7356L18.4519 13.9939L23.2996 18.8415L26.44 21.982L33.0758 28.6177L36.0814 25.6076L28.5696 18.0913Z" fill="#4BF0A5"/>
<path d="M47.9411 7.69019L40.8336 14.7977L37.6977 17.9336L33.0522 22.5791L36.0668 25.5892L39.8272 21.8243L47.9411 13.7104L53.6828 19.4522L38.7939 34.3411L41.8085 37.3512L49.5315 29.6237L52.6674 26.4878L59.7031 19.4522L47.9411 7.69019ZM26.6995 46.431L23.5635 49.5669L19.4347 53.7003L13.693 47.9586L24.3048 37.3467L21.2947 34.3411L17.1434 38.4924L14.0075 41.6283L7.67273 47.9586L19.4347 59.7205L25.6931 53.4622L28.829 50.3262L33.0522 46.0986L30.0465 43.0929L26.6995 46.431Z" fill="#4BF0A5"/>
<path d="M52.6683 26.488L48.7776 24.3585L44.9049 22.2379L42.964 18.6886L40.8344 14.7979L33.1743 0.794067L25.4289 14.9507L23.2993 18.8414L21.4438 22.2379L17.4138 24.4393L13.5231 26.5689L0 33.9684L14.0083 41.6285L17.899 43.7536L21.4438 45.6944L23.5644 49.5672L25.6939 53.4624L33.1743 67.1428L40.5739 53.6151L42.6989 49.7244L44.9049 45.6944L48.2969 43.8389L52.1876 41.7139H52.1921L66.3487 33.9684L52.6683 26.488ZM49.0562 38.578H49.0517L45.161 40.703L41.7689 42.5585L39.563 46.5885L37.4379 50.4792L33.1743 58.2696L28.8299 50.3265L26.7003 46.4312L24.5842 42.5585L21.035 40.6176L17.1443 38.4926L8.87315 33.9684L16.6635 29.7093L20.5543 27.5797L24.5842 25.3738L26.4397 21.9818L28.5693 18.0911L33.1743 9.66272L37.6985 17.9338L39.8281 21.8246L41.7689 25.3738L45.6417 27.4944L49.5324 29.6239L57.4755 33.9684L49.0562 38.578Z" fill="#4BF0A5"/>
<path d="M37.4343 50.4792L33.1752 58.2696L28.8307 50.3219L33.0539 46.0988L37.4343 50.4792Z" fill="#E86B35"/>
<path d="M57.4756 33.9684L49.0517 38.5734L44.8151 34.3413L49.5324 29.6239L57.4756 33.9684Z" fill="#E86B35"/>
<path d="M21.2956 34.3418L17.1398 38.4886L8.87317 33.969L16.6636 29.7098L21.2956 34.3418Z" fill="#E86B35"/>
<path d="M37.7002 17.934L33.0547 22.5795L28.5709 18.0912L33.176 9.66284L37.7002 17.934Z" fill="#E86B35"/>
</svg>
