<svg width="15" height="14" viewBox="0 0 15 14" fill="none" xmlns="http://www.w3.org/2000/svg">
<path d="M7.62156 12.0225C9.03605 12.0225 10.3926 11.4606 11.3928 10.4604C12.393 9.46017 12.9549 8.10362 12.9549 6.68913C12.9549 5.27464 12.393 3.91809 11.3928 2.91789C10.3926 1.9177 9.03605 1.35579 7.62156 1.35579C6.20707 1.35579 4.85052 1.9177 3.85033 2.91789C2.85013 3.91809 2.28823 5.27464 2.28823 6.68913C2.28823 8.10362 2.85013 9.46017 3.85033 10.4604C4.85052 11.4606 6.20707 12.0225 7.62156 12.0225ZM7.62156 13.3558C3.93956 13.3558 0.954895 10.3711 0.954895 6.68913C0.954895 3.00713 3.93956 0.0224609 7.62156 0.0224609C11.3036 0.0224609 14.2882 3.00713 14.2882 6.68913C14.2882 10.3711 11.3036 13.3558 7.62156 13.3558ZM6.9549 0.689128H8.28823V7.35579H6.9549V0.689128ZM6.9549 6.02246H13.6216V7.35579H6.9549V6.02246Z" fill="#0A221C"/>
</svg>
