<svg width="24" height="25" viewBox="0 0 24 25" fill="none" xmlns="http://www.w3.org/2000/svg">
<path d="M12 22.5C6.477 22.5 2 18.023 2 12.5C2 6.977 6.477 2.5 12 2.5C17.523 2.5 22 6.977 22 12.5C22 18.023 17.523 22.5 12 22.5ZM12 20.5C14.1217 20.5 16.1566 19.6571 17.6569 18.1569C19.1571 16.6566 20 14.6217 20 12.5C20 10.3783 19.1571 8.34344 17.6569 6.84315C16.1566 5.34285 14.1217 4.5 12 4.5C9.87827 4.5 7.84344 5.34285 6.34315 6.84315C4.84285 8.34344 4 10.3783 4 12.5C4 14.6217 4.84285 16.6566 6.34315 18.1569C7.84344 19.6571 9.87827 20.5 12 20.5ZM12 6.5C13.0609 6.5 14.0783 6.92143 14.8284 7.67157C15.5786 8.42172 16 9.43913 16 10.5V12.5C16 13.5609 15.5786 14.5783 14.8284 15.3284C14.0783 16.0786 13.0609 16.5 12 16.5C10.9391 16.5 9.92172 16.0786 9.17157 15.3284C8.42143 14.5783 8 13.5609 8 12.5V10.5C8 9.43913 8.42143 8.42172 9.17157 7.67157C9.92172 6.92143 10.9391 6.5 12 6.5ZM12 8.5C11.4696 8.5 10.9609 8.71071 10.5858 9.08579C10.2107 9.46086 10 9.96957 10 10.5V12.5C10 13.0304 10.2107 13.5391 10.5858 13.9142C10.9609 14.2893 11.4696 14.5 12 14.5C12.5304 14.5 13.0391 14.2893 13.4142 13.9142C13.7893 13.5391 14 13.0304 14 12.5V10.5C14 9.96957 13.7893 9.46086 13.4142 9.08579C13.0391 8.71071 12.5304 8.5 12 8.5ZM7.91 19.376C7.33398 19.0329 6.80319 18.619 6.33 18.144C6.92398 17.446 7.68102 16.9053 8.534 16.57C8.65695 16.5175 8.78916 16.4903 8.92283 16.4898C9.0565 16.4893 9.18891 16.5156 9.31223 16.5672C9.43555 16.6188 9.54728 16.6945 9.64082 16.79C9.73436 16.8855 9.8078 16.9988 9.85681 17.1231C9.90582 17.2475 9.9294 17.3804 9.92615 17.514C9.92291 17.6477 9.8929 17.7793 9.83792 17.9011C9.78293 18.023 9.70408 18.1325 9.60602 18.2234C9.50796 18.3142 9.39268 18.3845 9.267 18.43C8.735 18.64 8.274 18.968 7.909 19.376H7.91ZM16.054 19.398C15.6668 18.9697 15.1836 18.6394 14.644 18.434C14.5175 18.3901 14.4012 18.3213 14.3018 18.2316C14.2024 18.1419 14.1221 18.0332 14.0655 17.9119C14.009 17.7905 13.9773 17.6591 13.9725 17.5253C13.9677 17.3916 13.9897 17.2582 14.0374 17.1331C14.0851 17.008 14.1574 16.8938 14.25 16.7972C14.3427 16.7006 14.4538 16.6235 14.5767 16.5706C14.6997 16.5177 14.832 16.4901 14.9659 16.4893C15.0998 16.4885 15.2324 16.5146 15.356 16.566C16.2398 16.9021 17.0251 17.4547 17.64 18.173C17.1645 18.6459 16.6317 19.0575 16.054 19.398Z" fill="white"/>
</svg>
