<svg width="10" height="10" viewBox="0 0 10 10" fill="none" xmlns="http://www.w3.org/2000/svg">
<path d="M5.93331 4.60001V1.26667C5.93331 1.08986 5.86307 0.920293 5.73805 0.795268C5.61302 0.670244 5.44345 0.600006 5.26664 0.600006C5.08983 0.600006 4.92026 0.670244 4.79524 0.795268C4.67021 0.920293 4.59998 1.08986 4.59998 1.26667V4.60001H1.26664C1.08983 4.60001 0.920262 4.67024 0.795238 4.79527C0.670214 4.92029 0.599976 5.08986 0.599976 5.26667C0.599976 5.44348 0.670214 5.61305 0.795238 5.73808C0.920262 5.8631 1.08983 5.93334 1.26664 5.93334H4.59998V9.26667C4.59998 9.44348 4.67021 9.61305 4.79524 9.73808C4.92026 9.8631 5.08983 9.93334 5.26664 9.93334C5.44345 9.93334 5.61302 9.8631 5.73805 9.73808C5.86307 9.61305 5.93331 9.44348 5.93331 9.26667V5.93334H9.26664C9.44345 5.93334 9.61302 5.8631 9.73805 5.73808C9.86307 5.61305 9.93331 5.44348 9.93331 5.26667C9.93331 5.08986 9.86307 4.92029 9.73805 4.79527C9.61302 4.67024 9.44345 4.60001 9.26664 4.60001H5.93331Z" fill="#0A221C"/>
</svg>
